<?xml version="1.0" encoding="UTF-8" standalone="no"?>
<!-- Created with Inkscape (http://www.inkscape.org/) -->

<svg
   version="1.1"
   id="svg182"
   width="128"
   height="128"
   viewBox="0 0 192 192"
   sodipodi:docname="icon.svg"
   inkscape:version="1.2.1 (9c6d41e410, 2022-07-14)"
   xml:space="preserve"
   inkscape:export-filename="../../../talks/2022-09-20_qgg-plant-meeting/fig/darsa.png"
   inkscape:export-xdpi="767.99994"
   inkscape:export-ydpi="767.99994"
   xmlns:inkscape="http://www.inkscape.org/namespaces/inkscape"
   xmlns:sodipodi="http://sodipodi.sourceforge.net/DTD/sodipodi-0.dtd"
   xmlns="http://www.w3.org/2000/svg"
   xmlns:svg="http://www.w3.org/2000/svg"><defs
     id="defs186" /><sodipodi:namedview
     id="namedview184"
     pagecolor="#ffffff"
     bordercolor="#666666"
     borderopacity="1.0"
     inkscape:showpageshadow="2"
     inkscape:pageopacity="0.0"
     inkscape:pagecheckerboard="true"
     inkscape:deskcolor="#d1d1d1"
     showgrid="false"
     inkscape:zoom="45.254834"
     inkscape:cx="78.013765"
     inkscape:cy="50.381358"
     inkscape:window-width="1920"
     inkscape:window-height="1016"
     inkscape:window-x="0"
     inkscape:window-y="0"
     inkscape:window-maximized="1"
     inkscape:current-layer="g4905"
     showguides="true"><sodipodi:guide
       position="-464.07707,-31.93109"
       orientation="0,-1"
       id="guide3366"
       inkscape:locked="false" /></sodipodi:namedview><g
     inkscape:groupmode="layer"
     inkscape:label="Image"
     id="g188"
     transform="translate(-764.74701,183.04237)"><g
       id="g3209"
       transform="rotate(-52.85928,1232.1669,269.94735)"><g
         id="g3035"
         transform="matrix(-0.73150129,-0.68184005,-0.68184005,0.73150129,1671.0243,-332.66354)" /><g
         id="g4905"
         transform="matrix(0.14460273,-1.3836515e-4,-1.3836693e-4,0.14452484,1115.2315,-276.78648)"><path
           style="fill:#8dd105"
           d="M 148.3235,1107.4765 C 67.006497,1080.6015 -2.5645028,1027.3175 -59.053623,963.89839 -142.65084,875.20984 -215.37601,776.84615 -285.62898,677.46146 -322.52663,625.12172 -355.82579,569.93475 -395.9789,520.06371 c -20.71548,30.44483 0.2617,75.00666 1.39771,99.03007 -41.85269,-9.91077 -54.32717,-59.65599 -54.4614,-96.99776 -21.08225,26.89904 -87.19006,-4.07926 -36.19438,-23.7644 16.09977,-8.72647 46.15331,-36.46316 7.72054,-37.16752 -31.19606,-19.49597 -44.21669,-53.04813 -85.94541,-52.02317 -40.88149,-45.39352 43.22714,-11.35658 61.8756,-11.93346 34.58364,-41.54106 98.90454,35.80218 115.5529,-21.8997 7.43965,-21.57529 10.03389,-72.62677 33.32288,-26.74769 22.54987,19.85357 -7.84747,86.55343 32.31213,46.39982 47.39344,-46.08684 -4.21442,45.1353 0.39681,45.58665 135.77224,15.33412 249.288517,108.81859 341.067117,203.01994 C 123.7409,748.81299 227.3598,853.20675 334.4189,954.00797 c 24.422,40.32739 80.5008,52.83303 98.9519,94.42023 -38.2924,10.4226 -77.6933,30.3761 -114.712,50.9268 -52.9912,25.6169 -114.6892,22.1701 -170.3353,8.1215 z"
           id="path3049"
           sodipodi:nodetypes="ccccccccccccccccccc"
           transform="matrix(-0.73150129,-0.68184005,-0.68184005,0.73150129,1671.0243,-332.66353)" /><path
           style="fill:#7ac102"
           d="M 143.11161,1105.486 C 61.951511,1078.4442 -5.2083088,1022.8567 -62.100199,960.4856 -142.50615,875.74894 -211.43694,780.81005 -279.52216,686.10742 -318.36656,630.58466 -353.81284,572.553 -395.93394,519.41291 c -20.32569,30.75412 -0.50682,74.83662 1.75272,99.61249 -43.84468,-8.61319 -52.85072,-63.61735 -56.36559,-97.10084 -20.3652,27.88036 -85.09869,-5.13777 -34.69679,-23.30969 27.37455,-14.10095 37.71793,-33.73951 0.23203,-38.65554 -25.36513,-20.09813 -34.72647,-53.18271 -75.41413,-48.10816 -46.57768,-39.83166 39.46697,-29.73225 59.79112,-16.12756 35.69446,-47.85338 95.70981,36.6672 114.37471,-19.09934 8.0896,-19.87115 8.31548,-74.53083 32.80374,-29.3101 23.01534,20.19664 -7.69275,89.45791 34.10868,46.85115 32.41739,-37.13543 14.6256,37.69358 -2.30933,45.54593 134.95219,14.72203 245.700471,104.14867 336.902191,198.34309 104.540999,106.67631 209.488499,213.02206 318.335199,315.31502 25.1462,40.55486 80.3734,54.11834 100.6401,95.59154 -40.5962,8.8266 -80.2215,31.7007 -119.092,51.8224 -53.43,24.3471 -116.8029,20.7452 -172.0171,4.7027 z m 63.3592,-95.8721 c 45.9414,-2.6068 53.7929,-88.62933 -0.9441,-59.17587 -32.4696,9.06074 -48.7982,69.29037 0.9441,59.17587 z m -80.3389,-34.05931 c 68.06232,-19.46039 58.6524,-126.22345 -0.6041,-94.23419 -26.492499,10.53235 -64.606711,97.18267 0.6041,94.23419 z M 52.969329,911.53577 c 42.514599,-1.99086 79.037491,-106.38395 11.623882,-97.93721 -36.8229,5.82321 -77.487354,98.35331 -11.623882,97.93721 z m -68.601598,-99.82068 c 38.50688,-2.58807 60.06398,-91.05015 6.7663902,-70.57887 -29.2929102,9.92937 -63.0468302,76.56646 -6.7663902,70.57887 z m -69.02814,-76.98917 c 42.80729,-1.18925 56.07182,-77.60308 1.27444,-57.6986 -31.589971,7.27129 -52.721261,67.47168 -1.27444,57.6986 z M -159.88501,676.8047 c 46.8982,-1.79451 61.184581,-90.43959 2.2792,-63.12953 -29.40442,8.41865 -50.97441,70.5103 -2.2792,63.12953 z m -60.33217,-77.80801 c 41.80105,-3.46913 47.97157,-73.72085 -3.18206,-52.48396 -30.67105,5.99339 -40.83324,65.12206 3.18206,52.48396 z M -297.64216,544.804 c 56.50534,-9.4172 28.39563,-86.46404 -16.20552,-42.28885 -18.5833,14.85719 -13.38411,52.21904 16.20552,42.28885 z M -459.02275,424.56575 c 54.32441,-6.64149 -33.20642,-53.34975 -28.05657,-8.35805 7.68198,6.56488 18.20423,8.76624 28.05657,8.35805 z"
           id="path3047"
           sodipodi:nodetypes="cccccccccccccccccccccccccccccccccccccccccccccc"
           transform="matrix(-0.73150129,-0.68184005,-0.68184005,0.73150129,1671.0243,-332.66353)" /><path
           style="fill:#649c0b"
           d="M 143.11161,1105.486 C 61.951511,1078.4442 -5.2083088,1022.8567 -62.100199,960.4856 -142.50615,875.74894 -211.43694,780.81005 -279.52216,686.10742 -318.36656,630.58466 -353.81284,572.553 -395.93394,519.41291 c -20.32569,30.75412 -0.50682,74.83662 1.75272,99.61249 -43.84468,-8.61319 -52.85072,-63.61735 -56.36559,-97.10084 -20.3652,27.88036 -85.09869,-5.13777 -34.69679,-23.30969 27.37455,-14.10095 37.71793,-33.73951 0.23203,-38.65554 -25.36513,-20.09813 -34.72647,-53.18271 -75.41413,-48.10816 -46.57768,-39.83166 39.46697,-29.73225 59.79112,-16.12756 35.69446,-47.85338 95.70981,36.6672 114.37471,-19.09934 8.0896,-19.87115 8.31548,-74.53083 32.80374,-29.3101 23.01534,20.19664 -7.69275,89.45791 34.10868,46.85115 32.41739,-37.13543 14.6256,37.69358 -2.30933,45.54593 134.95219,14.72203 245.700471,104.14867 336.902191,198.34309 104.540999,106.67631 209.488499,213.02206 318.335199,315.31502 25.1462,40.55486 80.3734,54.11834 100.6401,95.59154 -40.5962,8.8266 -80.2215,31.7007 -119.092,51.8224 -53.43,24.3471 -116.8029,20.7452 -172.0171,4.7027 z m 56.24608,-48.583 c 41.8921,-0.2749 76.61872,-56.4006 65.70352,-101.71597 -40.834,-45.27758 -126.862,6.34213 -113.9538,62.65067 4.6022,13.7371 16.03158,44.3331 48.25028,39.0653 z m -90.02624,-53.3735 c 28.2601,-1.8241 62.44021,-51.04376 87.82982,-68.83408 6.26026,-4.38652 2.92995,-16.62197 5.93999,-21.14815 6.73007,-10.11999 -4.1653,-16.08443 -15.38705,-28.24429 -42.9382,-44.54909 -105.145899,8.84777 -117.542999,54.88559 -4.7511,23.55199 17.989437,65.96123 39.160239,63.34093 z M 79.508111,969.4866 c -0.9015,-2.00913 -1.6039,1.5089 0,0 z m 262.655099,9.32279 C 273.91771,909.24989 200.91481,844.40249 132.99931,774.39695 27.694211,672.81158 -65.774229,552.07999 -200.05885,486.88926 -223.2445,476.12617 -268.70374,458.09802 -282.43234,458.30707 -165.65836,493.32984 -79.431559,584.21065 1.6378012,670.3108 72.049511,741.11226 141.60361,812.81649 216.64731,878.80503 c 39.4977,36.8263 80.42,73.47296 126.5628,101.59645 z M 21.908254,938.83008 c 14.504414,7.28726 25.830309,9.53145 35.069168,3.17263 19.325055,-13.30083 31.968005,-51.71513 62.651078,-72.46779 -2.98664,-4.2965 8.40801,-6.10185 13.25457,-10.01455 5.85305,-4.72525 -4.53651,-26.66051 -5.30381,-33.69994 -1.02723,-9.42426 -28.843575,-26.64087 -34.979519,-29.53051 -15.935569,-7.50463 -55.554935,14.54659 -68.78273,28.79188 -30.6145898,23.41179 -60.442107,116.03467 -1.908757,113.74828 z M 215.08881,898.2038 c 10.7817,-9.25896 -20.2823,10.02665 0,0 z M -21.120069,840.47919 c 33.40907,-13.27403 65.62398,-49.85158 65.96848,-85.58625 -20.5825,-51.29706 -77.69712,-17.57227 -100.09866,12.85803 -28.92672,30.67892 -15.05884,86.43908 34.13018,72.72822 z m 138.248879,27.40679 c -0.9016,-2.00913 -1.604,1.5089 0,0 z m 27.9585,-34.27234 c 10.1253,-8.54293 -19.1003,6.58472 0,0 z M 32.778111,805.15674 c -0.9016,-2.00913 -1.604,1.5089 0,0 z m -132.544287,-3.70018 c 37.051281,-12.78997 74.377107,-75.29282 75.868037,-115.69017 -20.38642,-50.62064 -79.419861,-20.61065 -101.910051,11.73078 -27.83015,24.12012 -24.94154,113.66376 26.042014,103.95939 z M -200.52065,740.19619 c 33.23009,-23.50772 76.61248,-80.58345 112.560411,-101.54431 11.69288,-60.23134 -98.186691,-29.11754 -118.540341,11.29924 -21.76434,24.48193 -35.38535,79.26102 5.97993,90.24507 z m 262.231261,16.94599 c 19.5399,-8.26697 -15.0501,2.30083 0,0 z M -183.89266,614.71599 c 30.86168,-19.59134 37.65582,-23.38915 33.11017,-36.80167 8.30608,-40.68273 -57.29924,-55.55592 -85.67739,-29.62485 -34.96069,15.71748 -69.52949,95.94275 -18.49708,114.49088 l 6.46096,0.70436 25.88508,-2.43295 17.33861,-14.50314 z m 178.2822312,73.71215 c 26.1611398,-11.70258 -25.2980802,5.19624 0,0 z M -97.688279,656.74001 c -0.90155,-2.00913 -1.60394,1.5089 0,0 z M -308.16954,591.15283 c 13.019,-7.21462 13.45294,5.88368 25.24905,-8.68394 5.46731,-6.75186 26.75111,-25.05182 37.87238,-34.41435 15.16685,-12.76833 18.11883,-16.58922 21.43481,-22.42331 0.21894,-50.52678 -78.96152,-68.42408 -103.44531,-25.09934 -23.66246,22.93845 -26.34941,100.34885 18.88907,90.62094 z m 243.319641,35.26047 c 29.66963,-5.39028 -29.27489,0.18434 0,0 z m -64.940891,-60.45274 c 28.55048,-6.72652 -32.75145,-1.0261 0,0 z m -79.69049,-63.36159 c -14.82126,1.45906 -11.62171,6.70929 0,0 z m -239.95018,-53.66339 c 19.01763,-6.21695 -0.45522,-33.09493 24.95294,-30.08616 38.44087,-24.69128 -55.2038,-42.59097 -69.77989,-15.68841 -22.66255,22.57708 26.00964,47.88459 44.82695,45.77457 z m -60.99876,-33.42582 c 24.16549,-33.76512 -94.44425,-32.80388 -40.05082,-7.78323 13.1119,-3.68685 31.41941,11.84891 40.05082,7.78323 z"
           id="path3043"
           sodipodi:nodetypes="ccccccccccccccccccccccccssccccccccccccccscssscccccccccccccccccccccccccccccccccccccsscccccccccccccccc"
           transform="matrix(-0.73150129,-0.68184005,-0.68184005,0.73150129,1671.0243,-332.66353)" /><path
           style="fill:#437402"
           d="M 157.13947,1109.2839 C 79.346869,1085.7851 10.263639,1038.5493 -43.797841,978.30916 -134.29153,887.31957 -209.4879,782.59099 -284.17215,678.65097 c -37.23564,-53.5875 -71.8165,-109.28038 -112.14277,-160.56304 -18.32807,31.76731 -5.75451,72.75574 3.53851,100.09365 -51.15327,-0.91245 -48.13998,-83.37846 -62.80757,-93.59295 -24.29852,24.07925 -76.33889,-12.36102 -27.30969,-27.2096 26.64198,-14.19333 34.99567,-31.85438 0.20595,-36.73433 -27.47177,-18.25671 -35.82341,-55.16893 -77.46298,-49.1887 -43.66402,-38.90216 40.31617,-29.25168 59.60738,-15.17496 35.20384,-46.57813 93.83403,33.44571 114.02085,-18.14676 10.25753,-18.0829 8.87785,-75.14344 32.59168,-30.66069 24.05671,19.95628 -9.47986,90.72888 34.95619,47.34244 36.73536,-39.34912 -4.62577,48.35164 -0.49994,46.15885 138.54589,14.71966 249.799369,109.7395 343.011209,205.95581 C 125.56677,751.6693 228.81207,855.28598 335.20477,955.5915 c 24.7869,37.31816 70.7664,52.2307 96.6896,87.1988 -3.2773,26.0088 -53.2392,7.0943 -69.1597,32.9032 -48.4091,30.4895 -105.2396,48.5739 -162.839,40.6324 -14.3974,-1.2306 -28.8074,-3.1711 -42.7562,-7.042 z m 42.48391,-26.3497 c 77.15031,-15.3859 99.29519,-80.9125 67.59089,-126.15499 -44.476,-51.34727 -138.84746,15.81214 -124.17846,76.77099 5.87547,36.5274 33.39357,51.4307 56.58757,49.384 z m -82.11111,-84.13063 c 38.1982,-3.86382 44.4049,-56.42678 81.4434,-68.31266 15.6801,-55.24871 -66.691,-86.09812 -98.0889,-40.11028 -30.112301,24.34208 -45.277401,76.97096 -7.309001,101.66135 7.054901,4.61087 15.518901,7.05405 23.954501,6.76159 z M 57.158259,941.68142 c 20.696,-27.83813 45.171431,-61.87074 75.326531,-82.68596 6.4155,-48.62364 -56.705321,-73.96711 -91.711421,-46.86893 C 6.2606588,829.44693 -31.79633,883.75596 -3.9816399,919.19206 7.0441103,935.5758 36.368059,944.9149 57.158259,941.68142 Z M 335.92307,970.9023 C 238.38027,876.55063 139.43637,783.40202 46.033069,684.8272 -45.772331,591.06963 -144.58209,491.92155 -275.82724,458.30441 c -40.66143,-8.72664 56.48838,20.54609 72.16683,34.22428 104.683489,59.58358 179.282539,156.4947 264.973779,238.65632 66.496101,68.40695 136.646801,133.37801 208.663201,195.88495 20.0835,15.95005 63.314,52.97282 74.1612,52.96462 l -3.621,-4.14037 z m -50.924,-11.95717 c 27.3303,-13.23642 -23.8967,6.6375 0,0 z M -18.816611,863.625 c 16.4023898,-27.65837 54.52258,-48.99222 71.01868,-76.18909 6.2788,-43.65521 -46.3820402,-84.05251 -80.91683,-45.46989 -40.63706,23.3928 -62.58738,90.54634 -12.98472,117.00337 7.19051,3.06235 15.11624,4.30478 22.88287,4.65561 z m 230.916881,37.07401 c 24.0374,-12.69343 -20.2087,3.5775 0,0 z M -92.717341,797.83516 c 30.4041,-12.86615 43.59533,-57.02248 72.40204,-77.16926 15.6031398,-50.23596 -52.53503,-88.01759 -85.785209,-44.02101 -44.71535,28.09556 -62.03458,108.04429 4.68916,120.69821 z m 237.020611,36.73403 c 16.1409,-13.5905 -21.9818,7.57185 0,0 z m -306.90594,-95.43184 c 19.72266,-28.27632 42.09279,-66.30191 76.311209,-86.10198 25.29319,-58.62769 -64.768329,-76.23696 -93.336409,-33.92786 -28.41946,27.83756 -48.50647,84.60424 -11.12844,113.34848 8.27859,5.37635 18.4017,7.47101 28.15364,6.68136 z m 226.409839,17.95671 c 15.9188,-13.78984 -21.3602,7.94568 0,0 z M -227.98115,660.67831 c 27.67398,-12.93035 44.029,-49.8277 73.00249,-66.755 1.77332,-1.03603 3.80603,-1.60193 4.55376,-2.78547 0.53635,-0.84895 -0.35703,-2.38926 1.08473,-2.91542 12.12003,-51.46953 -57.71941,-69.81144 -90.13018,-38.42361 -41.33964,17.06846 -63.06117,83.56747 -15.48305,106.43621 8.34185,3.98189 17.80385,5.39645 26.97225,4.44329 z m 224.5495088,28.21953 c 23.2384102,-11.18582 -31.6424698,3.6781 0,0 z M -401.71206,608.76803 c -27.07664,-32.49909 8.03182,-76.97839 -7.2113,-105.05393 -18.77159,-24.44153 -38.39928,-40.09051 -57.81844,-8.76049 -17.77609,9.51633 -52.00144,27.17506 -11.63857,31.79307 25.31635,3.13005 54.13069,-67.13032 36.76742,-11.31009 -1.29421,32.30058 14.42842,84.274 39.90089,93.33144 z m 111.09209,-20.12028 c 17.75648,-33.34694 99.69749,-53.10691 52.13113,-97.7238 -37.82045,-38.99773 -102.47234,-1.60393 -104.55417,47.33633 -1.7259,27.32633 22.91299,58.68904 52.42304,50.38747 z m 230.800729,38.02892 c 11.88766,-11.05405 -34.6598,4.93771 0,0 z M -128.1008,566.45961 c 31.547469,-8.8969 -41.24182,-1.29536 0,0 z M -450.04641,464.86905 c 14.77994,-23.67124 2.05535,-45.25664 31.5734,-49.8211 22.60788,-23.20992 -59.02908,-36.13282 -74.78514,-14.3155 -31.89876,32.88328 15.33098,62.70882 43.21174,64.1366 z m 236.74602,40.55933 c 24.2652,-6.81468 -21.90988,1.29578 0,0 z m -295.95092,-90.79583 c 20.17427,-34.99615 -94.15511,-32.36408 -43.58626,-6.72023 13.60719,-4.81384 37.8049,16.33154 43.58626,6.72023 z m 85.73442,20.98938 c 38.7972,-4.3518 105.91994,23.5407 114.18733,-33.16086 9.98207,-26.27847 -29.14772,18.28777 -42.16446,17.38776 -25.8778,30.32788 20.60652,-40.67787 -0.5889,-56.03914 -10.77253,-31.01433 -21.36232,-30.00268 -21.65149,2.50306 -5.702,31.67663 -44.87544,50.72848 -57.54135,68.89327 l 7.75884,0.41591 z"
           id="path3041"
           sodipodi:nodetypes="cccccccccccccccccccccccccccccccccccccccccccccccccccccccccccccccccccsscccccccccccccccccccccccccccccsccccccs"
           transform="matrix(-0.73150129,-0.68184005,-0.68184005,0.73150129,1671.0243,-332.66353)" /><path
           style="fill:#043d02;fill-opacity:1"
           d="M 156.6089,1110.6382 C 81.717705,1088.5846 13.731074,1043.6657 -38.286806,986.87772 -90.428596,937.05581 -136.14648,879.51508 -180.06872,822.12527 c -6.12106,-9.75618 -21.32819,-26.97149 -30.28,-39.86623 -23.37653,-30.0265 -46.80774,-60.57217 -67.38527,-92.45935 -16.09892,-23.21203 -30.62717,-48.81825 -48.71545,-72.05449 -13.65347,-20.53668 -28.64122,-42.15218 -41.49448,-59.12719 -14.56702,-21.72608 -30.14734,-52.76608 -37.08402,-11.11066 -0.79437,16.48831 11.79446,65.32729 12.47808,71.14302 0.17934,1.52569 -10.03388,-0.7951 -15.74306,-3.30424 -29.46416,-16.68203 -39.81182,-52.29141 -43.57661,-83.44351 -0.46584,-6.89181 -1.62604,-2.65914 -13.41417,0.53128 -15.89921,4.30307 -33.98642,1.80936 -40.91545,-18.88167 2.12691,-3.22741 4.35043,-6.61836 8.27559,-9.44082 23.49747,-16.8963 61.36116,-36.09104 13.5556,-43.23379 -31.03381,-17.67 -33.82079,-52.02551 -76.42961,-48.52758 -47.30828,-39.37063 33.50751,-33.16812 59.87189,-17.17405 37.57881,-41.59211 74.60749,10.6989 104.25918,-2.81718 20.14048,-16.85311 12.92657,-97.19973 44.61683,-47.56059 11.69708,19.28083 6.71086,45.00668 9.70965,56.48065 1.45825,5.57953 5.14084,7.71488 18.24815,-2.97221 11.74499,-14.21727 19.99394,-18.70463 23.14836,-16.26841 7.53865,5.82225 -6.32914,47.34809 -18.10968,57.94592 88.76611,9.84294 173.64483,50.19763 239.969181,108.6818 21.81699,15.23935 44.793892,37.848 65.543492,58.16414 20.4522902,24.4876 44.577224,42.69991 66.299024,67.42645 15.1711,14.20282 36.27381,37.04963 53.385113,54.36494 19.9367,24.97718 45.95107,42.62336 64.79044,67.18587 29.898,25.46994 59.09464,56.80166 87.89894,85.43635 12.608,13.30338 28.86465,27.03628 44.15973,41.89192 29.9397,23.89364 50.84282,55.39655 81.47742,75.77287 23.11512,14.47659 92.57424,52.65359 22.15443,59.66939 -27.9732,7.0063 -57.1261,30.3681 -86.4158,40.9681 -50.0355,24.0756 -110.65298,23.6654 -163.59988,11.0922 z m 50.91351,-3.4748 c 50.6497,5.7034 100.6622,-8.4348 143.4037,-35.3588 53.2146,-14.8264 -70.2861,-5.1043 -8.23,-12.2847 24.3618,-7.2535 65.2198,-6.5539 80.9684,-16.29 -25.3567,-29.182 -67.6563,-35.2893 -96.9829,-60.29833 -16.0218,-17.06272 -40.56124,-12.88404 -43.71457,34.19773 1.0691,61.067 -91.57166,100.6497 -137.20136,54.5111 -24.1099,-17.4017 -5.58839,-69.1604 -46.350088,-48.3248 -35.884399,2.2599 -58.017317,-41.35309 -62.958317,-64.47068 -48.35593,13.72471 -67.855104,-49.7199 -75.207864,-74.5798 -41.79613,7.97947 -54.473693,-47.2457 -61.547761,-69.2509 -41.44963,12.94588 -61.2349,-36.84424 -70.87436,-59.38023 -50.81896,11.59635 -60.02556,-57.41 -58.76872,-80.11531 -49.47431,19.61456 -67.02006,-53.13801 -66.73071,-76.90544 -56.25414,7.28848 -77.68871,-77.46333 -37.18342,-108.9813 10.83832,-17.01595 61.88992,-24.59253 16.5115,-29.66875 -37.59034,-8.18948 -76.16304,-17.13205 -114.4871,-17.47616 -25.63226,38.05621 41.51557,49.56147 52.4896,82.66255 70.11254,92.46456 130.07249,192.29484 203.42913,282.39894 60.93985,80.30176 127.014871,157.60801 203.569441,223.27878 52.4507,39.054 113.401099,72.0327 179.865399,76.3361 z m -15.11643,-24.4827 c 72.32476,-6.8126 112.57183,-88.9732 69.96903,-133.14779 -40.7301,-32.45671 -105.3408,1.72443 -115.6107,48.23623 -5.6557,31.63786 11.10867,88.03806 45.64167,84.91156 z m -69.85367,-83.62537 c 33.178,-9.52325 43.2217,-55.48861 77.8015,-69.95379 12.893,-57.67022 -71.2358,-84.96525 -101.839299,-37.08047 -29.6364,24.30008 -43.1823,74.55617 -6.3675,99.37597 8.655499,6.29472 19.748199,9.52816 30.405299,7.65829 z M 57.078811,938.81964 c 21.1999,-25.96113 42.6428,-63.69865 75.304099,-80.48663 6.6085,-43.13893 -46.325599,-75.58832 -82.240699,-51.98146 -39.95514,18.56559 -79.50677,71.03523 -41.4543796,110.79729 11.4755796,14.21442 29.6594796,24.56341 48.3909796,21.6708 z M 349.13061,984.53981 C 294.02501,924.69942 230.18251,872.95932 175.11181,813.09583 93.772511,738.62146 21.692511,653.5186 -60.542179,580.54251 -128.16728,521.73837 -206.66201,469.50575 -296.40846,454.27951 c 87.71799,25.31687 163.30834,80.1671 226.597301,144.56584 43.84527,43.1885 85.17227,88.72117 129.58917,131.34836 60.690899,64.54568 126.382299,122.4243 191.278699,181.94508 31.1941,24.34378 65.3122,57.23514 98.0739,72.40102 z m -68.1426,-23.12254 c 25.265,-8.2281 -10.7294,-6.01134 0,0 z m -2.185,-8.20928 c -7.2134,-13.77354 -69.8703,-81.72261 -71.3678,-29.81636 4.4082,17.10311 57.2907,-1.13351 67.6498,31.26509 z M -15.267359,864.28878 c 13.1095804,-41.25685 94.70857,-61.18726 59.72847,-113.35446 -21.1233,-44.78876 -75.93161,-18.83272 -96.31355,12.16937 -30.60195,28.67212 -24.72098,85.30618 17.2241,99.52014 l 9.47824,1.93375 9.88274,-0.26876 z m 228.421869,36.53557 c 22.4899,-13.84532 -22.9209,4.32704 0,0 z m -3.5418,-8.05885 c -10.2159,-15.29956 -47.8836,-67.05542 -70.5808,-49.58644 -5.0546,32.46997 55.8853,10.20106 62.6623,48.05696 l 3.3397,3.62948 z M 3.7659414,843.21281 c -0.90153,-2.00912 -1.60397,1.50887 0,0 z M 173.21841,867.86735 c -0.9015,-2.00912 -1.6039,1.50886 0,0 z M -95.082629,798.44508 c 33.35376,-6.63686 39.97805,-56.08863 71.93616,-72.00587 19.3571504,-32.66137 -17.98737,-85.22736 -55.93117,-66.82335 -36.656291,18.06039 -76.821701,57.22222 -67.775061,101.95024 8.17069,19.64514 30.30066,35.96575 51.770071,36.87898 z m 239.285739,37.10299 c 18.4768,-13.3428 -23.5112,5.10039 0,0 z m -4.5597,-8.45323 c -11.9143,-22.393 -47.328199,-50.9941 -70.344499,-67.86521 -17.446,8.74144 -17.1106,49.16408 11.194,31.99545 26.737899,-1.67899 44.869699,22.85449 59.150499,35.86976 z M 71.398411,759.84106 c 1.6039,-1.5089 0.9016,2.00912 0,0 z m 60.614399,43.71383 c -0.9016,-2.00912 -1.604,1.50889 0,0 z m -298.81273,-63.17888 c 26.39874,-19.34437 42.17574,-68.98465 80.458401,-86.13334 28.51071,-62.97141 -70.922781,-78.03746 -98.583901,-31.46468 -30.32479,30.49281 -43.3107,102.62493 9.56698,117.42428 z m 22.35954,-19.71942 c -2.16597,-0.11197 0.91936,3.14556 0,0 z m 212.655491,34.8194 c -1.3431,-11.90165 -21.6735,12.75058 0,0 z m -5.5186,-8.23258 c -22.9662,-15.40947 -40.3796,-63.91691 -71.3646596,-51.08784 -5.0971204,16.00927 -14.2914304,39.72149 12.75833,21.89501 28.9323296,-12.45031 41.2707296,35.57051 58.6063296,29.19283 z M -230.76967,661.87859 c 34.71695,-8.4892 41.69852,-59.76483 79.66893,-71.11144 17.921,-64.01664 -63.18753,-71.45796 -98.9218,-36.43224 -2.70105,2.64749 -8.49768,7.7339 -11.29222,11.17236 -11.75988,11.42905 -26.61668,25.87298 -26.53318,43.42044 0.0807,16.96104 6.92193,41.6889 21.95166,51.81241 9.06443,6.10548 22.68631,2.49773 35.12661,1.13847 z m 221.3274014,28.65383 c 35.5567796,-5.67697 -17.2192904,-7.78395 3e-5,0 z M -400.02408,610.70217 c -6.44917,-17.17501 -8.18955,-29.11549 -8.33567,-42.18346 -0.27872,-24.92648 11.15911,-47.16151 -0.83446,-65.9054 -18.23734,-20.86631 -36.83927,-44.04847 -55.60609,-10.76177 -14.76506,11.99608 -60.45055,27.16447 -17.11306,35.60909 25.18185,6.73182 54.40006,-60.83735 39.03234,-10.72026 -0.32313,33.58081 9.5557,79.55227 42.85694,93.9618 z m 391.7838314,69.19312 c -9.1372504,-16.08781 -53.2433504,-76.49077 -69.5088104,-32.26147 18.68762,-1.32248 55.03607,10.87153 64.72115,33.81333 z M -294.2745,590.39809 c 22.26254,-18.8346 53.36428,-45.68915 70.39006,-64.4113 2.4455,-51.86739 -77.15811,-71.57987 -103.20125,-27.37227 -28.37407,28.42382 -18.99376,88.26606 25.86265,91.95295 z m 227.145731,37.34819 c 29.10424,1.56959 -8.03323,-13.2432 -7.48476,0.45914 z m -5.04267,-8.7345 c 7.396,-8.38691 -35.994791,-53.37926 -57.300061,-47.64721 -42.51044,28.94963 50.281761,5.74625 51.667871,44.81097 l 1.78643,3.37148 z M -130.2692,567.10767 c 34.196871,-2.19576 -22.34147,-12.84526 -7.81732,0.84798 z m -1.39482,-12.2156 c -21.42849,-14.21257 -84.46891,-78.90979 -87.42372,-25.05538 31.4491,-13.77713 61.5542,10.94985 84.57787,27.20997 z m -319.07705,-87.69546 c 18.1409,-24.33402 0.72474,-46.60553 30.77257,-50.28784 30.78622,-24.97355 -65.6688,-42.52762 -77.2754,-11.74592 -26.37806,35.8832 19.78799,54.33633 46.50283,62.03376 z m 238.53733,38.62447 c 19.01276,-11.80009 -25.01948,3.8907 0,0 z M -509.7649,417.12905 c 29.94201,-37.78113 -106.56416,-37.73987 -40.55904,-8.25938 13.00852,-7.32682 35.883,18.40527 40.55904,8.25938 z m 84.06453,19.23351 c 37.38398,-6.64476 96.88863,24.22512 114.23768,-23.131 13.32901,-35.80677 -0.98145,-17.24694 -19.97244,-4.17747 -19.37924,-0.50247 -39.74729,41.15454 -21.3453,2.70619 11.00234,-29.41915 5.35909,-60.51378 -17.72355,-76.61826 2.01552,39.89727 -25.02224,73.6744 -58.08111,92.58185 -7.74741,3.13276 -7.6101,12.65892 2.88472,8.63869 z m 64.00958,127.89795 c 1.60395,-1.50887 0.90155,2.00913 0,0 z m -110.63403,-74.09527 c 1.6039,-1.50889 0.90158,2.0091 0,0 z"
           id="path3039"
           sodipodi:nodetypes="ccccccccsccscscccccscscccccccccccccccccccccccccccccccccccccccccccccccccccccccccccccscccccscccccccccccccccccccccccccccccccccccccccccscsscssscsccccccccccccccccccccccccccccccccccccccccccccccccc"
           transform="matrix(-0.73150129,-0.68184005,-0.68184005,0.73150129,1671.0243,-332.66353)" /><g
           id="g3308"
           transform="translate(8.8832254e-6,4.9373275e-4)"><text
             xml:space="preserve"
             style="font-size:127.216px;line-height:1.25;font-family:sans-serif;-inkscape-font-specification:sans-serif;stroke-width:1.98776"
             x="788.64832"
             y="353.34967"
             id="text3105"
             transform="rotate(-4.5357533)"><tspan
               sodipodi:role="line"
               id="tspan3103"
               x="788.64832"
               y="353.34967"
               style="font-style:normal;font-variant:normal;font-weight:bold;font-stretch:normal;font-family:'Ubuntu Mono';-inkscape-font-specification:'Ubuntu Mono';stroke-width:1.98776">0</tspan></text><text
             xml:space="preserve"
             style="font-size:127.216px;line-height:1.25;font-family:sans-serif;-inkscape-font-specification:sans-serif;stroke-width:1.98776"
             x="885.06549"
             y="362.78339"
             id="text3109"
             transform="rotate(-4.5357533)"><tspan
               sodipodi:role="line"
               id="tspan3107"
               x="885.06549"
               y="362.78339"
               style="font-style:normal;font-variant:normal;font-weight:bold;font-stretch:normal;font-family:'Ubuntu Mono';-inkscape-font-specification:'Ubuntu Mono';stroke-width:1.98776">1</tspan></text><text
             xml:space="preserve"
             style="font-size:127.216px;line-height:1.25;font-family:sans-serif;-inkscape-font-specification:sans-serif;stroke-width:1.98776"
             x="1176.0818"
             y="385.8696"
             id="text3163"
             transform="rotate(-4.5357533)"><tspan
               sodipodi:role="line"
               id="tspan3161"
               x="1176.0818"
               y="385.8696"
               style="font-style:normal;font-variant:normal;font-weight:bold;font-stretch:normal;font-family:'Ubuntu Mono';-inkscape-font-specification:'Ubuntu Mono';stroke-width:1.98776">1</tspan></text><text
             xml:space="preserve"
             style="font-size:127.216px;line-height:1.25;font-family:sans-serif;-inkscape-font-specification:sans-serif;stroke-width:1.98776"
             x="1370.0925"
             y="401.26041"
             id="text3167"
             transform="rotate(-4.5357533)"><tspan
               sodipodi:role="line"
               id="tspan3165"
               x="1370.0925"
               y="401.26041"
               style="font-style:normal;font-variant:normal;font-weight:bold;font-stretch:normal;font-family:'Ubuntu Mono';-inkscape-font-specification:'Ubuntu Mono';stroke-width:1.98776">1</tspan></text><text
             xml:space="preserve"
             style="font-size:127.216px;line-height:1.25;font-family:sans-serif;-inkscape-font-specification:sans-serif;stroke-width:1.98776"
             x="982.65912"
             y="368.74048"
             id="text3171"
             transform="rotate(-4.5357533)"><tspan
               id="tspan3169"
               x="982.65912"
               y="368.74048"
               style="font-style:normal;font-variant:normal;font-weight:bold;font-stretch:normal;font-family:'Ubuntu Mono';-inkscape-font-specification:'Ubuntu Mono';stroke-width:1.98776"
               sodipodi:role="line">0</tspan></text><text
             xml:space="preserve"
             style="font-size:127.216px;line-height:1.25;font-family:sans-serif;-inkscape-font-specification:sans-serif;stroke-width:1.98776"
             x="1079.6646"
             y="376.43585"
             id="text3175"
             transform="rotate(-4.5357533)"><tspan
               sodipodi:role="line"
               id="tspan3173"
               x="1079.6646"
               y="376.43585"
               style="font-style:normal;font-variant:normal;font-weight:bold;font-stretch:normal;font-family:'Ubuntu Mono';-inkscape-font-specification:'Ubuntu Mono';stroke-width:1.98776">0</tspan></text><text
             xml:space="preserve"
             style="font-size:127.216px;line-height:1.25;font-family:sans-serif;-inkscape-font-specification:sans-serif;stroke-width:1.98776"
             x="1273.6753"
             y="391.82666"
             id="text3179"
             transform="rotate(-4.5357533)"><tspan
               sodipodi:role="line"
               id="tspan3177"
               x="1273.6753"
               y="391.82666"
               style="font-style:normal;font-variant:normal;font-weight:bold;font-stretch:normal;font-family:'Ubuntu Mono';-inkscape-font-specification:'Ubuntu Mono';stroke-width:1.98776">0</tspan></text><text
             xml:space="preserve"
             style="font-size:127.216px;line-height:1.25;font-family:sans-serif;-inkscape-font-specification:sans-serif;stroke-width:1.98776"
             x="1467.6862"
             y="407.21747"
             id="text3183"
             transform="rotate(-4.5357533)"><tspan
               sodipodi:role="line"
               id="tspan3181"
               x="1467.6862"
               y="407.21747"
               style="font-style:normal;font-variant:normal;font-weight:bold;font-stretch:normal;font-family:'Ubuntu Mono';-inkscape-font-specification:'Ubuntu Mono';stroke-width:1.98776">0</tspan></text></g></g></g></g></svg>
